<?xml version="1.0" encoding="UTF-8"?>
<svg version="1.1" xmlns="http://www.w3.org/2000/svg" width="162" height="103">
<path d="M0 0 C1.38169184 2.08012947 2.66703059 4.1658639 3.9375 6.3125 C8.3414955 13.48493092 14.29099467 22.14549733 22 26 C22 26.66 22 27.32 22 28 C22.59022949 28.26280762 23.18045898 28.52561523 23.78857422 28.79638672 C26.10305707 30.0560909 27.56431456 31.36299171 29.3828125 33.2578125 C29.99253906 33.88300781 30.60226563 34.50820313 31.23046875 35.15234375 C32.16826172 36.12880859 32.16826172 36.12880859 33.125 37.125 C34.37293802 38.42377053 35.6253243 39.71828638 36.8828125 41.0078125 C37.43340332 41.58160645 37.98399414 42.15540039 38.55126953 42.74658203 C39.93279926 44.21809662 39.93279926 44.21809662 42 44 C43.37352495 42.27310104 43.37352495 42.27310104 44.71484375 40.01953125 C45.23626953 39.18486328 45.75769531 38.35019531 46.29492188 37.49023438 C46.83697266 36.60658203 47.37902344 35.72292969 47.9375 34.8125 C48.47568359 33.94818359 49.01386719 33.08386719 49.56835938 32.19335938 C51.69029716 28.77889721 53.79044533 25.35917221 55.81640625 21.88671875 C56.20699219 21.26410156 56.59757812 20.64148438 57 20 C57.33 20 57.66 20 58 20 C58 17.69 58 15.38 58 13 C56.35 13.33 54.7 13.66 53 14 C53.33 13.01 53.66 12.02 54 11 C54.66 11 55.32 11 56 11 C56.268125 10.4225 56.53625 9.845 56.8125 9.25 C58.01719859 6.9674132 59.40798115 5.0262058 61 3 C64.18673962 4.40301147 66.32221406 6.07765071 68.75 8.5625 C69.36359375 9.18253906 69.9771875 9.80257813 70.609375 10.44140625 C72 12 72 12 72 13 C70.35 13 68.7 13 67 13 C70.4811411 32.16917831 77.47587142 53.81666977 89.82421875 69.28515625 C90.21222656 69.85105469 90.60023438 70.41695313 91 71 C90.67 71.99 90.34 72.98 90 74 C89.00742188 73.67386719 88.01484375 73.34773438 86.9921875 73.01171875 C78.06344755 70.12424381 69.22609967 67.77314103 60 66 C59.93941406 64.74703125 59.87882812 63.4940625 59.81640625 62.203125 C59.73197744 60.55207276 59.64733061 58.90103165 59.5625 57.25 C59.52318359 56.425 59.48386719 55.6 59.44335938 54.75 C59.40146484 53.95078125 59.35957031 53.1515625 59.31640625 52.328125 C59.27974854 51.5949707 59.24309082 50.86181641 59.20532227 50.10644531 C58.99885215 47.98822395 58.56867914 46.0480544 58 44 C57.38812152 46.57948769 56.81027849 49.15927226 56.25 51.75 C56.07339844 52.47960938 55.89679688 53.20921875 55.71484375 53.9609375 C55.15752108 56.38059711 55.15752108 56.38059711 55 60 C56.79216131 62.41902811 56.79216131 62.41902811 59 64 C59 64.66 59 65.32 59 66 C58.4225 65.835 57.845 65.67 57.25 65.5 C54.73335631 64.85537969 54.73335631 64.85537969 51 65 C51.0825 64.236875 51.165 63.47375 51.25 62.6875 C51.29166667 59.85416667 51.29166667 59.85416667 49 58.1875 C48.01 57.5996875 48.01 57.5996875 47 57 C46.855625 57.763125 46.71125 58.52625 46.5625 59.3125 C46 62 46 62 45 65 C41.09858105 63.69952702 40.54795294 62.13471547 38.375 58.6875 C29.68913623 45.28554567 19.61731509 32.91460761 9 21 C15.89075103 34.19376153 23.00919347 47.3390362 30.85546875 59.9921875 C32 62 32 62 32 64 C30.68 64 29.36 64 28 64 C27.51273437 62.906875 27.02546875 61.81375 26.5234375 60.6875 C20.2533615 46.91386568 12.78812729 33.96467695 5 21 C5.9041213 23.71236391 6.88102205 26.37629041 7.890625 29.05078125 C8.45728882 30.55487549 8.45728882 30.55487549 9.03540039 32.08935547 C9.6366272 33.68481201 9.6366272 33.68481201 10.25 35.3125 C20 61.26986434 20 61.26986434 20 64 C18.125 63.83959961 18.125 63.83959961 16 63 C14.875 60.65844727 14.875 60.65844727 14 57.56640625 C13.505 55.8793457 13.505 55.8793457 13 54.15820312 C12.505 52.37833008 12.505 52.37833008 12 50.5625 C9.20268739 37.4310838 9.20268739 37.4310838 3 26 C2.34 39.86 1.68 53.72 1 68 C5.95 67.01 5.95 67.01 11 66 C30.26848949 63.3238209 60.13325825 62.06662912 78 71 C78 71.66 78 72.32 78 73 C76.91428711 72.89606934 76.91428711 72.89606934 75.80664062 72.79003906 C53.04410011 70.80731312 28.36439663 69.89131101 6 75 C5.14776855 75.19335938 4.29553711 75.38671875 3.41748047 75.5859375 C-13.62228577 79.62240927 -29.47862997 86.25174646 -43.75 96.46875 C-46 98 -46 98 -49 99 C-47.71476999 95.53331134 -46.21380973 92.58078085 -44.1640625 89.5078125 C-43.60025879 88.64986084 -43.03645508 87.79190918 -42.45556641 86.90795898 C-41.85147949 85.98958252 -41.24739258 85.07120605 -40.625 84.125 C-26.50754929 62.23364681 -15.4608035 39.29064527 -9 14 C-10.98 14.33 -12.96 14.66 -15 15 C-13.73507097 11.20521291 -11.8946497 9.76879537 -9 7 C-8.40058594 6.37996094 -7.80117188 5.75992187 -7.18359375 5.12109375 C-6.25740234 4.16396484 -6.25740234 4.16396484 -5.3125 3.1875 C-4.73113281 2.58292969 -4.14976563 1.97835938 -3.55078125 1.35546875 C-2 0 -2 0 0 0 Z M7 18 C8 20 8 20 8 20 Z M14 23 C17.21731184 27.51685349 20.61181977 31.73626492 24.375 35.8125 C29.03617924 40.90101995 33.05501396 46.34587832 37 52 C37.99 50.68 38.98 49.36 40 48 C35.19509514 42.22636432 30.0577806 36.87456107 24.75 31.5625 C23.9353125 30.73556641 23.120625 29.90863281 22.28125 29.05664062 C21.50265625 28.27611328 20.7240625 27.49558594 19.921875 26.69140625 C19.21643555 25.98185791 18.51099609 25.27230957 17.78417969 24.54125977 C16.1407031 22.78209616 16.1407031 22.78209616 14 23 Z M57 23 C58 25 58 25 58 25 Z M56 25 C57 27 57 27 57 27 Z M55 27 C53.36992743 29.55939439 51.74584824 32.12227323 50.125 34.6875 C49.66480469 35.40873047 49.20460938 36.12996094 48.73046875 36.87304688 C46.45004207 40.49198487 44.39734854 43.92841547 43 48 C44.32 48.99 45.64 49.98 47 51 C48.53649202 47.56928818 50.05144123 44.12948082 51.5625 40.6875 C52.00013672 39.71103516 52.43777344 38.73457031 52.88867188 37.72851562 C53.29794922 36.79072266 53.70722656 35.85292969 54.12890625 34.88671875 C54.51119385 34.02264404 54.89348145 33.15856934 55.28735352 32.26831055 C56.28328364 29.87312067 56.28328364 29.87312067 55 27 Z M58 27 C57.75765625 27.7734375 57.5153125 28.546875 57.265625 29.34375 C55.48246122 34.88527437 53.58220317 40.09662579 50.89453125 45.2578125 C49.57580534 47.82616077 48.57980925 50.16537701 48 53 C49.1075902 55.42284238 49.1075902 55.42284238 51 57 C51.66 57 52.32 57 53 57 C53.14622803 56.34402832 53.29245605 55.68805664 53.44311523 55.01220703 C54.10521028 52.04919382 54.77130419 49.08709377 55.4375 46.125 C55.66759766 45.09246094 55.89769531 44.05992188 56.13476562 42.99609375 C56.35712891 42.00996094 56.57949219 41.02382813 56.80859375 40.0078125 C57.01282959 39.09660645 57.21706543 38.18540039 57.42749023 37.24658203 C58 35 58 35 59 33 C59.039992 31.00039988 59.04346799 28.99952758 59 27 C58.67 27 58.34 27 58 27 Z M41 49 C39.515 50.98 39.515 50.98 38 53 C40.475 55.97 40.475 55.97 43 59 C45.24180162 56.31973545 45.24180162 56.31973545 44.8125 54 C43.90059285 51.75530549 42.81466246 50.57796735 41 49 Z " fill="#EBECED" transform="translate(50,2)"/>
<path d="M0 0 C3.18673962 1.40301147 5.32221406 3.07765071 7.75 5.5625 C8.67039062 6.49255859 8.67039062 6.49255859 9.609375 7.44140625 C11 9 11 9 11 10 C9.35 10 7.7 10 6 10 C9.4811411 29.16917831 16.47587142 50.81666977 28.82421875 66.28515625 C29.21222656 66.85105469 29.60023438 67.41695313 30 68 C29.505 69.485 29.505 69.485 29 71 C28.00742188 70.67386719 27.01484375 70.34773438 25.9921875 70.01171875 C17.06344755 67.12424381 8.22609967 64.77314103 -1 63 C-1.06058594 61.74703125 -1.12117188 60.4940625 -1.18359375 59.203125 C-1.26802256 57.55207276 -1.35266939 55.90103165 -1.4375 54.25 C-1.49647461 53.0125 -1.49647461 53.0125 -1.55664062 51.75 C-1.61948242 50.55117187 -1.61948242 50.55117187 -1.68359375 49.328125 C-1.72025146 48.5949707 -1.75690918 47.86181641 -1.79467773 47.10644531 C-1.98111465 44.65826332 -1.98111465 44.65826332 -3 41 C-3.99 45.62 -4.98 50.24 -6 55 C-6.99 55 -7.98 55 -9 55 C-8.84853516 54.31373535 -8.69707031 53.6274707 -8.54101562 52.92041016 C-7.8585212 49.82241044 -7.17922155 46.72371884 -6.5 43.625 C-6.26152344 42.54476562 -6.02304688 41.46453125 -5.77734375 40.3515625 C-5.55175781 39.3203125 -5.32617188 38.2890625 -5.09375 37.2265625 C-4.77954102 35.79691162 -4.77954102 35.79691162 -4.45898438 34.33837891 C-3.93579737 32.07007451 -3.93579737 32.07007451 -4 30 C-4.66 32.31 -5.32 34.62 -6 37 C-6.66 37 -7.32 37 -8 37 C-8.18175781 37.68707031 -8.36351563 38.37414063 -8.55078125 39.08203125 C-8.80214844 39.98308594 -9.05351563 40.88414063 -9.3125 41.8125 C-9.55613281 42.70582031 -9.79976563 43.59914062 -10.05078125 44.51953125 C-11.0200819 47.05247738 -11.95009604 48.2716496 -14 50 C-14.33 49.34 -14.66 48.68 -15 48 C-14.24235017 45.97660506 -13.37920983 43.99245395 -12.47265625 42.03125 C-11.92191051 40.80756851 -11.3718017 39.58360021 -10.82226562 38.359375 C-9.94976856 36.43837001 -9.0719672 34.52034648 -8.18188477 32.60742188 C-4.67875893 25.04311526 -1.92142249 18.49024589 -3 10 C-4.65 10.33 -6.3 10.66 -8 11 C-7.67 10.01 -7.34 9.02 -7 8 C-6.34 8 -5.68 8 -5 8 C-4.731875 7.4225 -4.46375 6.845 -4.1875 6.25 C-2.98280141 3.9674132 -1.59201885 2.0262058 0 0 Z " fill="#47C120" transform="translate(111,5)"/>
<path d="M0 0 C1.99908915 0.33875312 3.99874484 0.67428711 6 1 C6 -0.65 6 -2.3 6 -4 C10.06348939 -2.33318032 13.05788882 0.50885254 16.25 3.4375 C16.80429688 3.92798828 17.35859375 4.41847656 17.9296875 4.92382812 C19.34802723 6.21815046 20.68115689 7.60443175 22 9 C22 9.99 22 10.98 22 12 C19.43873936 13.294174 16.87606642 14.58540784 14.3125 15.875 C13.59126953 16.23980469 12.87003906 16.60460937 12.12695312 16.98046875 C8.46874636 18.8179242 4.8388305 20.56138502 1 22 C1.52268466 19.23723823 2.10869587 16.6739124 3 14 C-15.70627309 8.102932 -35.37172459 4.60435118 -55 4 C-55.91136719 3.96003906 -56.82273438 3.92007813 -57.76171875 3.87890625 C-72.87354257 3.52060638 -87.86759626 5.60232972 -102.5078125 9.1953125 C-106 10 -106 10 -109 10 C-109 9.34 -109 8.68 -109 8 C-73.42583638 -4.52625874 -37.19618513 -7.1816349 0 0 Z " fill="#F9CD16" transform="translate(139,78)"/>
<path d="M0 0 C0.639375 0.639375 1.27875 1.27875 1.9375 1.9375 C2.38609375 2.38480469 2.8346875 2.83210937 3.296875 3.29296875 C4.62479431 4.62393375 5.9464563 5.96114269 7.265625 7.30078125 C8.06484375 8.10902344 8.8640625 8.91726562 9.6875 9.75 C10.83798828 10.91789062 10.83798828 10.91789062 12.01171875 12.109375 C13.8610699 14.05230615 13.8610699 14.05230615 16 15 C16 15.66 16 16.32 16 17 C16.59022949 17.26280762 17.18045898 17.52561523 17.78857422 17.79638672 C20.10305707 19.0560909 21.56431456 20.36299171 23.3828125 22.2578125 C23.99253906 22.88300781 24.60226563 23.50820313 25.23046875 24.15234375 C25.85566406 24.80332031 26.48085937 25.45429687 27.125 26.125 C28.37293802 27.42377053 29.6253243 28.71828638 30.8828125 30.0078125 C31.43340332 30.58160645 31.98399414 31.15540039 32.55126953 31.74658203 C33.93279926 33.21809662 33.93279926 33.21809662 36 33 C37.37352495 31.27310104 37.37352495 31.27310104 38.71484375 29.01953125 C39.23626953 28.18486328 39.75769531 27.35019531 40.29492188 26.49023438 C40.83697266 25.60658203 41.37902344 24.72292969 41.9375 23.8125 C42.47568359 22.94818359 43.01386719 22.08386719 43.56835938 21.19335938 C46.08104249 17.15013932 48.56821871 13.09250997 51 9 C52 12 52 12 51.06640625 14.27734375 C47.02743163 21.42160794 42.64992139 28.23755088 38 35 C39.38646389 38.05837622 41.01844103 40.37203521 43.25 42.875 C43.86488281 43.5659375 44.47976562 44.256875 45.11328125 44.96875 C46.84054516 46.82833019 48.61534651 48.60911253 50.4375 50.375 C53 53 53 53 53 55 C52.4225 54.835 51.845 54.67 51.25 54.5 C48.73335631 53.85537969 48.73335631 53.85537969 45 54 C45.0825 53.236875 45.165 52.47375 45.25 51.6875 C45.29166667 48.85416667 45.29166667 48.85416667 43 47.1875 C42.34 46.795625 41.68 46.40375 41 46 C40.855625 46.763125 40.71125 47.52625 40.5625 48.3125 C40 51 40 51 39 54 C35.09858105 52.69952702 34.54795294 51.13471547 32.375 47.6875 C23.68913623 34.28554567 13.61731509 21.91460761 3 10 C9.89075103 23.19376153 17.00919347 36.3390362 24.85546875 48.9921875 C26 51 26 51 26 53 C24.68 53 23.36 53 22 53 C21.26910156 51.3603125 21.26910156 51.3603125 20.5234375 49.6875 C14.2533615 35.91386568 6.78812729 22.96467695 -1 10 C-0.0958787 12.71236391 0.88102205 15.37629041 1.890625 18.05078125 C2.26840088 19.05351074 2.64617676 20.05624023 3.03540039 21.08935547 C3.6366272 22.68481201 3.6366272 22.68481201 4.25 24.3125 C14 50.26986434 14 50.26986434 14 53 C12.12280273 52.83300781 12.12280273 52.83300781 10 52 C8.89086914 49.70605469 8.89086914 49.70605469 8.03515625 46.671875 C7.71232666 45.56706787 7.38949707 44.46226074 7.05688477 43.32397461 C6.72873779 42.14456299 6.40059082 40.96515137 6.0625 39.75 C5.36789094 37.37012587 4.67000611 34.99120524 3.96875 32.61328125 C3.63359375 31.46939941 3.2984375 30.32551758 2.953125 29.14697266 C0.63596644 19.91127073 0.63596644 19.91127073 -4 12 C-4.14115161 9.32941149 -4.04247107 6.67567762 -4 4 C-2.68 3.34 -1.36 2.68 0 2 C0 1.34 0 0.68 0 0 Z M1 7 C2 9 2 9 2 9 Z M8 12 C11.21731184 16.51685349 14.61181977 20.73626492 18.375 24.8125 C23.03617924 29.90101995 27.05501396 35.34587832 31 41 C31.99 39.68 32.98 38.36 34 37 C29.19509514 31.22636432 24.0577806 25.87456107 18.75 20.5625 C17.9353125 19.73556641 17.120625 18.90863281 16.28125 18.05664062 C15.50265625 17.27611328 14.7240625 16.49558594 13.921875 15.69140625 C13.21643555 14.98185791 12.51099609 14.27230957 11.78417969 13.54125977 C10.1407031 11.78209616 10.1407031 11.78209616 8 12 Z M35 38 C33.515 39.98 33.515 39.98 32 42 C34.475 44.97 34.475 44.97 37 48 C39.24180162 45.31973545 39.24180162 45.31973545 38.8125 43 C37.90059285 40.75530549 36.81466246 39.57796735 35 38 Z " fill="#ACADB1" transform="translate(56,13)"/>
<path d="M0 0 C0 0.33 0 0.66 0 1 C-9.57 1 -19.14 1 -29 1 C-29.2284549 3.24362573 -29.2284549 3.24362573 -27 5.125 C-26.01 6.053125 -26.01 6.053125 -25 7 C-26.30453125 6.9278125 -27.6090625 6.855625 -28.953125 6.78125 C-50.64991573 5.61019323 -71.30106514 5.99078021 -92.5078125 11.1953125 C-96 12 -96 12 -99 12 C-99 11.34 -99 10.68 -99 10 C-66.48691391 -1.44840208 -34.32574708 -4.29071838 0 0 Z " fill="#CFAE30" transform="translate(129,76)"/>
<path d="M0 0 C4.2742558 1.5830577 6.26531794 4.50568404 9 8 C6.04590299 6.62845496 3.55991624 5.01136276 1 3 C0.01 4.32 -0.98 5.64 -2 7 C-1.01 7.33 -0.02 7.66 1 8 C3.32395809 13.57749942 2.98711376 18.11733557 2 24 C1.67 24 1.34 24 1 24 C0.67 21.36 0.34 18.72 0 16 C-0.33 23.92 -0.66 31.84 -1 40 C-1.99 40.495 -1.99 40.495 -3 41 C-3.62852934 43.33247815 -4.15535246 45.69291467 -4.625 48.0625 C-4.88539062 49.35285156 -5.14578125 50.64320312 -5.4140625 51.97265625 C-5.60742188 52.97167969 -5.80078125 53.97070312 -6 55 C-6.99 55 -7.98 55 -9 55 C-8.84853516 54.31373535 -8.69707031 53.6274707 -8.54101562 52.92041016 C-7.8585212 49.82241044 -7.17922155 46.72371884 -6.5 43.625 C-6.26152344 42.54476562 -6.02304688 41.46453125 -5.77734375 40.3515625 C-5.55175781 39.3203125 -5.32617188 38.2890625 -5.09375 37.2265625 C-4.77954102 35.79691162 -4.77954102 35.79691162 -4.45898438 34.33837891 C-3.93579737 32.07007451 -3.93579737 32.07007451 -4 30 C-4.66 32.31 -5.32 34.62 -6 37 C-6.66 37 -7.32 37 -8 37 C-8.18175781 37.68707031 -8.36351563 38.37414063 -8.55078125 39.08203125 C-8.80214844 39.98308594 -9.05351563 40.88414063 -9.3125 41.8125 C-9.55613281 42.70582031 -9.79976563 43.59914062 -10.05078125 44.51953125 C-11.0200819 47.05247738 -11.95009604 48.2716496 -14 50 C-14.33 49.34 -14.66 48.68 -15 48 C-14.24235017 45.97660506 -13.37920983 43.99245395 -12.47265625 42.03125 C-11.92191051 40.80756851 -11.3718017 39.58360021 -10.82226562 38.359375 C-9.94976856 36.43837001 -9.0719672 34.52034648 -8.18188477 32.60742188 C-4.67875893 25.04311526 -1.92142249 18.49024589 -3 10 C-4.65 10.33 -6.3 10.66 -8 11 C-7.67 10.01 -7.34 9.02 -7 8 C-6.34 8 -5.68 8 -5 8 C-4.731875 7.4225 -4.46375 6.845 -4.1875 6.25 C-2.98280141 3.9674132 -1.59201885 2.0262058 0 0 Z " fill="#59BE38" transform="translate(111,5)"/>
<path d="M0 0 C11.60809061 -0.0968707 23.21374795 -0.16370547 34.8125 0.375 C35.59923096 0.40585693 36.38596191 0.43671387 37.1965332 0.46850586 C40.92938421 0.66793953 42.8234919 0.88232793 46 3 C44.20963542 3.9765625 42.41927083 4.953125 40.62890625 5.9296875 C38.83381685 6.91410024 38.83381685 6.91410024 38 9 C32.94012409 8.53822492 27.97624924 8.04763142 23 7 C21.58368694 6.85077161 20.16698572 6.70519998 18.75 6.5625 C16.89375 6.2840625 16.89375 6.2840625 15 6 C14.67 5.34 14.34 4.68 14 4 C11.47266765 3.34444881 11.47266765 3.34444881 9 3 C9 2.67 9 2.34 9 2 C6.03 1.67 3.06 1.34 0 1 C0 0.67 0 0.34 0 0 Z " fill="#FAD214" transform="translate(86,76)"/>
<path d="M0 0 C1 3 1 3 0.06640625 5.27734375 C-3.97256837 12.42160794 -8.35007861 19.23755088 -13 26 C-11.61353611 29.05837622 -9.98155897 31.37203521 -7.75 33.875 C-7.13511719 34.5659375 -6.52023438 35.256875 -5.88671875 35.96875 C-4.15945484 37.82833019 -2.38465349 39.60911253 -0.5625 41.375 C2 44 2 44 2 46 C1.4225 45.835 0.845 45.67 0.25 45.5 C-2.26664369 44.85537969 -2.26664369 44.85537969 -6 45 C-5.9175 44.236875 -5.835 43.47375 -5.75 42.6875 C-5.70833333 39.85416667 -5.70833333 39.85416667 -8 38.1875 C-8.66 37.795625 -9.32 37.40375 -10 37 C-10.144375 37.763125 -10.28875 38.52625 -10.4375 39.3125 C-11 42 -11 42 -12 45 C-15 44 -15 44 -16.6875 41.625 C-18 39 -18 39 -18 36 C-16.68 36.66 -15.36 37.32 -14 38 C-13.23043864 35.65466049 -13.23043864 35.65466049 -13 33 C-14.33378575 31.1645201 -14.33378575 31.1645201 -16 30 C-16.99 30.66 -17.98 31.32 -19 32 C-18.67 29.69 -18.34 27.38 -18 25 C-17.01 24.67 -16.02 24.34 -15 24 C-13.52527325 22.18794551 -13.52527325 22.18794551 -12.1875 19.921875 C-11.66929688 19.09042969 -11.15109375 18.25898437 -10.6171875 17.40234375 C-9.81667969 16.08943359 -9.81667969 16.08943359 -9 14.75 C-8.46632813 13.89019531 -7.93265625 13.03039062 -7.3828125 12.14453125 C-4.88795697 8.11676697 -2.42276876 4.0715975 0 0 Z " fill="#98AA99" transform="translate(107,22)"/>
<path d="M0 0 C3.89917968 1.61537444 6.71293772 4.27924873 9.75 7.125 C10.25660156 7.59292969 10.76320312 8.06085938 11.28515625 8.54296875 C12.52719141 9.69126541 13.76411494 10.84508672 15 12 C14.01 12.33 13.02 12.66 12 13 C11.01 12.34 10.02 11.68 9 11 C9 10.34 9 9.68 9 9 C8.34 9 7.68 9 7 9 C7 8.34 7 7.68 7 7 C6.175 7.185625 5.35 7.37125 4.5 7.5625 C1.56848956 7.9289388 -0.33860825 7.91601192 -3.1875 7.5 C-6.91460027 6.728809 -6.91460027 6.728809 -10 8 C-10.33 8.66 -10.66 9.32 -11 10 C-13.475 9.505 -13.475 9.505 -16 9 C-16.33 10.32 -16.66 11.64 -17 13 C-24.05889737 12.29411026 -31.01204964 11.21786614 -38 10 C-37.34 9.34 -36.68 8.68 -36 8 C-33.70703125 8.30859375 -33.70703125 8.30859375 -31 9 C-30.11699219 9.17660156 -29.23398438 9.35320312 -28.32421875 9.53515625 C-26.55338542 9.88932292 -24.78255208 10.24348958 -23.01171875 10.59765625 C-22.34785156 10.73042969 -21.68398437 10.86320312 -21 11 C-20.67 10.01 -20.34 9.02 -20 8 C-18.68671343 6.64691687 -17.35500919 5.31129922 -16 4 C-16 3.67 -16 3.34 -16 3 C-10.63108121 3.49869404 -5.30764827 4.02227532 0 5 C0 3.35 0 1.7 0 0 Z " fill="#D2AC23" transform="translate(145,74)"/>
<path d="M0 0 C0 0.33 0 0.66 0 1 C-0.92683594 1.12117188 -1.85367188 1.24234375 -2.80859375 1.3671875 C-4.00613281 1.53476563 -5.20367187 1.70234375 -6.4375 1.875 C-7.63246094 2.03742188 -8.82742187 2.19984375 -10.05859375 2.3671875 C-11.51458984 2.68042969 -11.51458984 2.68042969 -13 3 C-13.33 3.66 -13.66 4.32 -14 5 C-10.04 5 -6.08 5 -2 5 C-2 5.33 -2 5.66 -2 6 C-3.30710938 6.09796875 -4.61421875 6.1959375 -5.9609375 6.296875 C-16.7225414 7.17392648 -27.01916612 8.62478022 -37.5078125 11.1953125 C-41 12 -41 12 -44 12 C-44 11.34 -44 10.68 -44 10 C-13.28959308 -0.81364856 -13.28959308 -0.81364856 0 0 Z " fill="#BBA025" transform="translate(74,76)"/>
<path d="M0 0 C3.44298624 3.10842381 5.63757774 6.51819718 7.8203125 10.55859375 C8.16504608 11.18476089 8.50977966 11.81092804 8.86495972 12.45606995 C9.58916907 13.77467793 10.3100722 15.0951066 11.02783203 16.41723633 C12.12171856 18.43145774 13.22593291 20.43972907 14.33203125 22.44726562 C15.03707173 23.7340391 15.74151887 25.02113789 16.4453125 26.30859375 C16.93597702 27.20257118 16.93597702 27.20257118 17.43655396 28.11460876 C19.18446954 31.34178765 20.71526131 34.56152956 22 38 C20.68 38 19.36 38 18 38 C17.45472656 36.8140625 16.90945312 35.628125 16.34765625 34.40625 C12.15695459 25.38214125 7.82651041 16.55091747 2.74438477 7.99023438 C0 3.30275402 0 3.30275402 0 0 Z " fill="#A7A8AC" transform="translate(60,28)"/>
<path d="M0 0 C4.2742558 1.5830577 6.26531794 4.50568404 9 8 C6.04590299 6.62845496 3.55991624 5.01136276 1 3 C0.01 4.32 -0.98 5.64 -2 7 C-1.01 7.33 -0.02 7.66 1 8 C3.32395809 13.57749942 2.98711376 18.11733557 2 24 C1.67 24 1.34 24 1 24 C0.67 21.36 0.34 18.72 0 16 C-0.33 17.98 -0.66 19.96 -1 22 C-1.33 22 -1.66 22 -2 22 C-2.33 18.04 -2.66 14.08 -3 10 C-4.65 10.33 -6.3 10.66 -8 11 C-7.67 10.01 -7.34 9.02 -7 8 C-6.34 8 -5.68 8 -5 8 C-4.731875 7.4225 -4.46375 6.845 -4.1875 6.25 C-2.98280141 3.9674132 -1.59201885 2.0262058 0 0 Z " fill="#4CBE18" transform="translate(111,5)"/>
<path d="M0 0 C0.69802734 -0.020625 1.39605469 -0.04125 2.11523438 -0.0625 C6.80731156 -0.09821515 7.84939368 0.27767026 11.8125 3.25 C2.5725 3.58 -6.6675 3.91 -16.1875 4.25 C-15.8575 3.26 -15.5275 2.27 -15.1875 1.25 C-10.09457568 0.42448024 -5.15709708 0.03873876 0 0 Z " fill="#FDD913" transform="translate(76.1875,76.75)"/>
<path d="M0 0 C3.08715014 1.54357507 3.25148064 3.95315147 4.3828125 7.15234375 C4.60194305 7.76767471 4.82107361 8.38300568 5.04684448 9.01698303 C5.50911069 10.31959725 5.96785003 11.62346761 6.42333984 12.9284668 C7.12187277 14.92854592 7.83143782 16.92443462 8.54296875 18.91992188 C12 28.69534136 12 28.69534136 12 31 C10.13378906 30.8527832 10.13378906 30.8527832 8 30 C6.81152344 27.56323242 6.81152344 27.56323242 5.859375 24.35546875 C5.51132812 23.20369141 5.16328125 22.05191406 4.8046875 20.86523438 C4.45664062 19.65158203 4.10859375 18.43792969 3.75 17.1875 C3.20472656 15.38442383 3.20472656 15.38442383 2.6484375 13.54492188 C0 4.61889098 0 4.61889098 0 0 Z " fill="#ACAEB1" transform="translate(58,35)"/>
<path d="M0 0 C4.60575736 3.58678449 8.11135419 7.35484113 11.625 12 C12.55456165 13.20843015 13.484247 14.41676516 14.4140625 15.625 C14.85008789 16.19605469 15.28611328 16.76710938 15.73535156 17.35546875 C17.45835854 19.59604307 19.22524697 21.80030611 21 24 C20.34 25.32 19.68 26.64 19 28 C18.67314209 27.53215088 18.34628418 27.06430176 18.00952148 26.58227539 C16.4879303 24.40731236 14.96333472 22.23448824 13.4375 20.0625 C12.8919043 19.28575928 12.34630859 18.50901855 11.78417969 17.70874023 C8.36943015 12.87151574 4.87065467 8.14262985 1.109375 3.56640625 C0 2 0 2 0 0 Z " fill="#B7B9BC" transform="translate(69,32)"/>
<path d="M0 0 C3.89917968 1.61537444 6.71293772 4.27924873 9.75 7.125 C10.25660156 7.59292969 10.76320312 8.06085938 11.28515625 8.54296875 C12.52719141 9.69126541 13.76411494 10.84508672 15 12 C14.01 12.33 13.02 12.66 12 13 C11.01 12.34 10.02 11.68 9 11 C9 10.34 9 9.68 9 9 C8.34 9 7.68 9 7 9 C7 8.34 7 7.68 7 7 C6.175 7.185625 5.35 7.37125 4.5 7.5625 C0.38073281 8.0774084 -2.90823355 7.63492928 -7 7 C-7 6.34 -7 5.68 -7 5 C-7.66 4.67 -8.32 4.34 -9 4 C-6.03 4.33 -3.06 4.66 0 5 C0 3.35 0 1.7 0 0 Z " fill="#C5AA25" transform="translate(145,74)"/>
<path d="M0 0 C3.33485659 2.22323773 4.00549143 3.5791441 5.6875 7.125 C6.12449219 8.03507812 6.56148437 8.94515625 7.01171875 9.8828125 C7.33785156 10.58148438 7.66398437 11.28015625 8 12 C7.34 12.66 6.68 13.32 6 14 C4.35 11.03 2.7 8.06 1 5 C1.268125 5.639375 1.53625 6.27875 1.8125 6.9375 C3.35364142 10.91202261 4.67609312 14.94884495 6 19 C5.34 19.66 4.68 20.32 4 21 C-1.84598698 8.47288503 -1.84598698 8.47288503 -1 1 C-0.67 0.67 -0.34 0.34 0 0 Z " fill="#8D9096" transform="translate(53,16)"/>
<path d="M0 0 C1 3 1 3 0.1015625 5.20703125 C-4.31313753 12.99699135 -9.08548265 20.51901248 -14 28 C-14.99 27.01 -15.98 26.02 -17 25 C-16.45601563 24.52691406 -15.91203125 24.05382812 -15.3515625 23.56640625 C-12.10592321 20.02423845 -9.82219022 16.05650065 -7.375 11.9375 C-6.40404665 10.32137371 -5.43270811 8.70547876 -4.4609375 7.08984375 C-4.03603027 6.37691162 -3.61112305 5.66397949 -3.17333984 4.92944336 C-2.15796525 3.25975851 -1.08398596 1.62597894 0 0 Z " fill="#60B841" transform="translate(107,22)"/>
<path d="M0 0 C-0.99 0.33 -1.98 0.66 -3 1 C-2.01 1.66 -1.02 2.32 0 3 C-2.93666226 3.67055285 -5.87422359 4.33659053 -8.8125 5 C-10.06256836 5.28617187 -10.06256836 5.28617187 -11.33789062 5.578125 C-12.14033203 5.75859375 -12.94277344 5.9390625 -13.76953125 6.125 C-14.50792236 6.29257813 -15.24631348 6.46015625 -16.00708008 6.6328125 C-18 7 -18 7 -21 7 C-21 6.34 -21 5.68 -21 5 C-18.25435036 3.96588523 -15.5045139 2.94748843 -12.75 1.9375 C-11.97269531 1.64294922 -11.19539063 1.34839844 -10.39453125 1.04492188 C-9.26337891 0.6340332 -9.26337891 0.6340332 -8.109375 0.21484375 C-7.41811523 -0.04176025 -6.72685547 -0.29836426 -6.01464844 -0.56274414 C-3.67968529 -1.06952056 -2.24624397 -0.74214139 0 0 Z " fill="#9D812F" transform="translate(51,81)"/>
<path d="M0 0 C0.33 0 0.66 0 1 0 C1.19456705 1.95764383 1.38044247 3.91615321 1.5625 5.875 C1.66691406 6.96554688 1.77132812 8.05609375 1.87890625 9.1796875 C2 12 2 12 1 14 C1.99 14.33 2.98 14.66 4 15 C4.33 15.99 4.66 16.98 5 18 C3.02 18 1.04 18 -1 18 C-1.02684312 15.18743719 -1.04676188 12.37512759 -1.0625 9.5625 C-1.07087891 8.76005859 -1.07925781 7.95761719 -1.08789062 7.13085938 C-1.0965143 5.08704779 -1.0522815 3.04316098 -1 1 C-0.67 0.67 -0.34 0.34 0 0 Z " fill="#54C52F" transform="translate(111,50)"/>
<path d="M0 0 C0.99 0.99 1.98 1.98 3 3 C2.01 4.485 2.01 4.485 1 6 C0.83300768 9.12521833 0.83300768 9.12521833 1 12 C-0.8125 11.8125 -0.8125 11.8125 -3 11 C-5.14197494 8.09303401 -6 6.64478912 -6 3 C-4.02 3.99 -4.02 3.99 -2 5 C-1.34 3.35 -0.68 1.7 0 0 Z " fill="#BDBCC0" transform="translate(95,55)"/>
<path d="M0 0 C4.2742558 1.5830577 6.26531794 4.50568404 9 8 C6.04590299 6.62845496 3.55991624 5.01136276 1 3 C-1.0624994 4.81222534 -1.0624994 4.81222534 -3 7 C-3 7.99 -3 8.98 -3 10 C-4.65 10.33 -6.3 10.66 -8 11 C-7.67 10.01 -7.34 9.02 -7 8 C-6.34 8 -5.68 8 -5 8 C-4.731875 7.4225 -4.46375 6.845 -4.1875 6.25 C-2.98280141 3.9674132 -1.59201885 2.0262058 0 0 Z " fill="#58AC3B" transform="translate(111,5)"/>
<path d="M0 0 C0.66 0.33 1.32 0.66 2 1 C1.7159949 3.06356895 1.42246648 5.1258285 1.125 7.1875 C0.96257812 8.33605469 0.80015625 9.48460937 0.6328125 10.66796875 C0.05939755 13.68724625 -0.74759043 16.20575848 -2 19 C-2.66 18.34 -3.32 17.68 -4 17 C-3.48767979 14.04974224 -2.87974286 11.2627118 -2.125 8.375 C-1.92519531 7.57320312 -1.72539063 6.77140625 -1.51953125 5.9453125 C-1.02343066 3.96091016 -0.51304255 1.98008984 0 0 Z " fill="#51BA33" transform="translate(106,42)"/>
<path d="M0 0 C2 2 2 2 2.22705078 3.87939453 C2.21657715 4.62302246 2.20610352 5.36665039 2.1953125 6.1328125 C2.18886719 6.93847656 2.18242188 7.74414062 2.17578125 8.57421875 C2.15902344 9.41597656 2.14226562 10.25773437 2.125 11.125 C2.11597656 11.97449219 2.10695313 12.82398438 2.09765625 13.69921875 C2.07405647 15.79959884 2.03818483 17.89983444 2 20 C0.68 19.01 -0.64 18.02 -2 17 C-1.67 15.96875 -1.34 14.9375 -1 13.875 C0.1508754 9.85101722 0.93637978 5.87275956 -1 2 C-0.67 1.34 -0.34 0.68 0 0 Z " fill="#519441" transform="translate(108,25)"/>
<path d="M0 0 C1.13199353 0.9080162 2.25532363 1.82683826 3.375 2.75 C4.00148438 3.26046875 4.62796875 3.7709375 5.2734375 4.296875 C7.09997888 6.0986217 7.95170136 7.6787673 9 10 C9.97581759 11.35113205 10.97029741 12.68946944 12 14 C9 14 9 14 6.73828125 11.953125 C5.93777344 11.06109375 5.13726562 10.1690625 4.3125 9.25 C3.50425781 8.36828125 2.69601563 7.4865625 1.86328125 6.578125 C0 4 0 4 0 0 Z " fill="#B2B4B6" transform="translate(58,18)"/>
<path d="M0 0 C6 7.71428571 6 7.71428571 6 11 C4.68 11 3.36 11 2 11 C-1.07692308 5.70769231 -1.07692308 5.70769231 -0.6875 2.125 C-0.460625 1.42375 -0.23375 0.7225 0 0 Z " fill="#A2A3A7" transform="translate(76,55)"/>
<path d="M0 0 C4 4 8 8 12 12 C9 12 9 12 7.5 10.6875 C6.5 9.5625 5.5 8.4375 4.5 7.3125 C2.95590371 5.6707477 2.95590371 5.6707477 0 6 C-0.66 4.68 -1.32 3.36 -2 2 C-1.34 2 -0.68 2 0 2 C0 1.34 0 0.68 0 0 Z " fill="#BDBEC2" transform="translate(56,13)"/>
<path d="M0 0 C0.99 0.33 1.98 0.66 3 1 C3 3.31 3 5.62 3 8 C-0.3 7.67 -3.6 7.34 -7 7 C-7 6.34 -7 5.68 -7 5 C-7.66 4.67 -8.32 4.34 -9 4 C-6.03 4.33 -3.06 4.66 0 5 C0 3.35 0 1.7 0 0 Z " fill="#AD922B" transform="translate(145,74)"/>
<path d="M0 0 C1.31036266 0.38240155 2.62281339 0.75773937 3.9375 1.125 C4.948125 1.41375 5.95875 1.7025 7 2 C6.01 2.495 6.01 2.495 5 3 C4.67 3.66 4.34 4.32 4 5 C2.515 4.319375 2.515 4.319375 1 3.625 C-2.92110131 1.93307285 -6.84092487 0.94856099 -11 0 C-7.04110562 -2.85040395 -4.37876649 -1.48432762 0 0 Z " fill="#BA9B30" transform="translate(139,88)"/>
<path d="M0 0 C2.86697492 1.28519565 4.97607712 2.57129254 7 5 C7 5.66 7 6.32 7 7 C6.4225 6.835 5.845 6.67 5.25 6.5 C2.73335631 5.85537969 2.73335631 5.85537969 -1 6 C-0.67 4.02 -0.34 2.04 0 0 Z " fill="#8BAE88" transform="translate(102,61)"/>
<path d="M0 0 C3.33161397 2.98696425 5.34826557 5.82719722 7 10 C6.57421875 12.1875 6.57421875 12.1875 6 14 C4.9923048 12.2335343 3.99408286 10.46166177 3 8.6875 C2.443125 7.70136719 1.88625 6.71523438 1.3125 5.69921875 C0 3 0 3 0 0 Z " fill="#C6C7C9" transform="translate(69,44)"/>
<path d="M0 0 C1.32 1.32 2.64 2.64 4 4 C3.67 4.99 3.34 5.98 3 7 C-0.96 5.68 -4.92 4.36 -9 3 C-8.67 2.34 -8.34 1.68 -8 1 C-5.03 1.99 -2.06 2.98 1 4 C0.67 2.68 0.34 1.36 0 0 Z " fill="#5DB833" transform="translate(137,69)"/>
<path d="M0 0 C3.00825564 1.50412782 3.30662971 3.86048301 4.40234375 6.921875 C5.10104707 9.35135321 5.23571669 11.48568864 5 14 C3 13 3 13 2.1484375 11.07421875 C1.89320312 10.28660156 1.63796875 9.49898437 1.375 8.6875 C0.98441406 7.51767578 0.98441406 7.51767578 0.5859375 6.32421875 C0 4 0 4 0 0 Z " fill="#B2B4B7" transform="translate(58,35)"/>
<path d="M0 0 C1.25127906 3.54667178 0.72285053 5.72253438 -0.4375 9.25 C-0.72496094 10.14203125 -1.01242188 11.0340625 -1.30859375 11.953125 C-1.53675781 12.62859375 -1.76492187 13.3040625 -2 14 C-2.66 14 -3.32 14 -4 14 C-4.56561146 8.34388537 -2.71391278 4.77357872 0 0 Z " fill="#59AB39" transform="translate(107,28)"/>
<path d="M0 0 C1.48199902 0.44909061 2.96055236 0.90956564 4.4375 1.375 C5.26121094 1.63023438 6.08492187 1.88546875 6.93359375 2.1484375 C9 3 9 3 10 5 C8.20759337 4.88610125 6.41605165 4.75852313 4.625 4.625 C3.12839844 4.52058594 3.12839844 4.52058594 1.6015625 4.4140625 C-1 4 -1 4 -3 2 C-2.01 2 -1.02 2 0 2 C0 1.34 0 0.68 0 0 Z " fill="#FAD40E" transform="translate(129,83)"/>
<path d="M0 0 C0.66 0.66 1.32 1.32 2 2 C-4.6 1.67 -11.2 1.34 -18 1 C-18 0.67 -18 0.34 -18 0 C-15.75067773 -0.1954625 -13.50049858 -0.38108226 -11.25 -0.5625 C-9.99703125 -0.66691406 -8.7440625 -0.77132812 -7.453125 -0.87890625 C-4.58820754 -0.97937281 -2.63604594 -1.02855064 0 0 Z " fill="#A07E22" transform="translate(102,81)"/>
<path d="M0 0 C3.36720387 1.39332574 4.9859524 2.9789286 7 6 C6.34 7.32 5.68 8.64 5 10 C4.15801693 8.90241493 3.32669329 7.79664683 2.5 6.6875 C2.0359375 6.07261719 1.571875 5.45773438 1.09375 4.82421875 C0 3 0 3 0 0 Z " fill="#B1B1B5" transform="translate(83,50)"/>
<path d="M0 0 C0.33 0.99 0.66 1.98 1 3 C-0.28650706 3.69710731 -1.57940665 4.38242876 -2.875 5.0625 C-3.95394531 5.63677734 -3.95394531 5.63677734 -5.0546875 6.22265625 C-5.69664062 6.47917969 -6.33859375 6.73570313 -7 7 C-7.66 6.67 -8.32 6.34 -9 6 C-8.34 4.35 -7.68 2.7 -7 1 C-4.69 1.33 -2.38 1.66 0 2 C0 1.34 0 0.68 0 0 Z " fill="#B99F26" transform="translate(160,87)"/>
<path d="M0 0 C2.31 0.66 4.62 1.32 7 2 C4.14693203 4.32472205 1.45925163 5.7508258 -2 7 C-1.125 2.25 -1.125 2.25 0 0 Z " fill="#9F8C29" transform="translate(142,93)"/>
<path d="M0 0 C1 3 1 3 0.00390625 5.26171875 C-0.47175781 6.06222656 -0.94742188 6.86273438 -1.4375 7.6875 C-2.14712891 8.89986328 -2.14712891 8.89986328 -2.87109375 10.13671875 C-3.24363281 10.75160156 -3.61617188 11.36648437 -4 12 C-4.66 12 -5.32 12 -6 12 C-4.43358249 7.69235185 -2.31663844 3.93828536 0 0 Z " fill="#51813D" transform="translate(107,22)"/>
<path d="M0 0 C3.44216672 2.6598561 3.99504674 5.90288286 5 10 C4.34 10.66 3.68 11.32 3 12 C2.49166409 10.75336669 1.99368855 9.50250613 1.5 8.25 C1.2215625 7.55390625 0.943125 6.8578125 0.65625 6.140625 C0 4 0 4 0 0 Z " fill="#96979C" transform="translate(54,25)"/>
<path d="M0 0 C6.57142857 4 6.57142857 4 8 8 C7.01 8 6.02 8 5 8 C0 2.65116279 0 2.65116279 0 0 Z " fill="#C8C2CC" transform="translate(95,53)"/>
<path d="M0 0 C0 0.66 0 1.32 0 2 C-4.29 1.67 -8.58 1.34 -13 1 C-13 0.67 -13 0.34 -13 0 C-8.37078475 -1.0161692 -4.65537393 -0.83796731 0 0 Z " fill="#828887" transform="translate(128,73)"/>
<path d="M0 0 C0.99 0.33 1.98 0.66 3 1 C2.34 5.62 1.68 10.24 1 15 C0.67 15 0.34 15 0 15 C0 10.05 0 5.1 0 0 Z " fill="#51BC24" transform="translate(109,12)"/>
<path d="M0 0 C-6.625 3 -6.625 3 -10 3 C-10 2.34 -10 1.68 -10 1 C-3.71428571 -1.42857143 -3.71428571 -1.42857143 0 0 Z " fill="#A48F39" transform="translate(40,85)"/>
<path d="M0 0 C2.0625 2.25 2.0625 2.25 4 5 C3.75 7.3125 3.75 7.3125 3 9 C2.01 9 1.02 9 0 9 C0 6.03 0 3.06 0 0 Z " fill="#4BBF29" transform="translate(132,60)"/>
<path d="M0 0 C0.75 1.6875 0.75 1.6875 1 4 C-0.9375 6.75 -0.9375 6.75 -3 9 C-3.66 8.01 -4.32 7.02 -5 6 C-4.360625 5.38125 -3.72125 4.7625 -3.0625 4.125 C-0.96116416 2.17402388 -0.96116416 2.17402388 0 0 Z " fill="#5AAB3E" transform="translate(95,41)"/>
<path d="M0 0 C2.31 1.98 4.62 3.96 7 6 C5.68 6.33 4.36 6.66 3 7 C1.25 5.8125 1.25 5.8125 0 4 C0 2.68 0 1.36 0 0 Z " fill="#6E6E72" transform="translate(58,18)"/>
<path d="M0 0 C0.99 0.99 1.98 1.98 3 3 C2.01 4.98 1.02 6.96 0 9 C-0.66 8.01 -1.32 7.02 -2 6 C-1.125 2.8125 -1.125 2.8125 0 0 Z " fill="#4FA23F" transform="translate(95,55)"/>
<path d="M0 0 C1.485 0.99 1.485 0.99 3 2 C2.01 2.495 2.01 2.495 1 3 C1.33 4.98 1.66 6.96 2 9 C1.01 9 0.02 9 -1 9 C-1.09765625 2.84765625 -1.09765625 2.84765625 -1 1 C-0.67 0.67 -0.34 0.34 0 0 Z " fill="#666972" transform="translate(53,16)"/>
<path d="" fill="#30002B" transform="translate(0,0)"/>
</svg>
